<mxfile host="app.diagrams.net" modified="2024-05-13T00:08:33.252Z" agent="Mozilla/5.0 (Windows NT 10.0; Win64; x64) AppleWebKit/537.36 (KHTML, like Gecko) Chrome/124.0.0.0 Safari/537.36 Edg/124.0.0.0" etag="gRsbegahW2_JVMoEHMr6" version="24.4.0" type="github">
  <diagram name="PÃ¡gina-1" id="Z_JbfsSoX3muMKhor51x">
    <mxGraphModel dx="730" dy="775" grid="1" gridSize="10" guides="1" tooltips="1" connect="1" arrows="1" fold="1" page="1" pageScale="1" pageWidth="827" pageHeight="1169" math="0" shadow="0">
      <root>
        <mxCell id="0" />
        <mxCell id="1" parent="0" />
        <mxCell id="BUQTSwTULVwV5p79po12-3" value="" style="edgeStyle=orthogonalEdgeStyle;rounded=0;orthogonalLoop=1;jettySize=auto;html=1;" edge="1" parent="1" source="BUQTSwTULVwV5p79po12-1" target="BUQTSwTULVwV5p79po12-2">
          <mxGeometry relative="1" as="geometry" />
        </mxCell>
        <mxCell id="BUQTSwTULVwV5p79po12-1" value="INICIO 15" style="ellipse;whiteSpace=wrap;html=1;" vertex="1" parent="1">
          <mxGeometry x="294" y="40" width="120" height="50" as="geometry" />
        </mxCell>
        <mxCell id="BUQTSwTULVwV5p79po12-5" value="" style="edgeStyle=orthogonalEdgeStyle;rounded=0;orthogonalLoop=1;jettySize=auto;html=1;" edge="1" parent="1" source="BUQTSwTULVwV5p79po12-2" target="BUQTSwTULVwV5p79po12-4">
          <mxGeometry relative="1" as="geometry" />
        </mxCell>
        <mxCell id="BUQTSwTULVwV5p79po12-2" value="int decimal,int resto=0,string binari" style="whiteSpace=wrap;html=1;" vertex="1" parent="1">
          <mxGeometry x="294" y="140" width="120" height="60" as="geometry" />
        </mxCell>
        <mxCell id="BUQTSwTULVwV5p79po12-9" value="" style="edgeStyle=orthogonalEdgeStyle;rounded=0;orthogonalLoop=1;jettySize=auto;html=1;" edge="1" parent="1" source="BUQTSwTULVwV5p79po12-4" target="BUQTSwTULVwV5p79po12-8">
          <mxGeometry relative="1" as="geometry" />
        </mxCell>
        <mxCell id="BUQTSwTULVwV5p79po12-13" value="" style="edgeStyle=orthogonalEdgeStyle;rounded=0;orthogonalLoop=1;jettySize=auto;html=1;" edge="1" parent="1" source="BUQTSwTULVwV5p79po12-4" target="BUQTSwTULVwV5p79po12-12">
          <mxGeometry relative="1" as="geometry" />
        </mxCell>
        <mxCell id="BUQTSwTULVwV5p79po12-4" value="decimal==0" style="rhombus;whiteSpace=wrap;html=1;" vertex="1" parent="1">
          <mxGeometry x="314" y="240" width="80" height="80" as="geometry" />
        </mxCell>
        <mxCell id="BUQTSwTULVwV5p79po12-11" value="" style="edgeStyle=orthogonalEdgeStyle;rounded=0;orthogonalLoop=1;jettySize=auto;html=1;" edge="1" parent="1" source="BUQTSwTULVwV5p79po12-8" target="BUQTSwTULVwV5p79po12-10">
          <mxGeometry relative="1" as="geometry" />
        </mxCell>
        <mxCell id="BUQTSwTULVwV5p79po12-8" value="mostrar&lt;div&gt;0&lt;/div&gt;" style="shape=parallelogram;perimeter=parallelogramPerimeter;whiteSpace=wrap;html=1;fixedSize=1;" vertex="1" parent="1">
          <mxGeometry x="430" y="250" width="120" height="60" as="geometry" />
        </mxCell>
        <mxCell id="BUQTSwTULVwV5p79po12-10" value="FIN" style="ellipse;whiteSpace=wrap;html=1;" vertex="1" parent="1">
          <mxGeometry x="620" y="260" width="80" height="40" as="geometry" />
        </mxCell>
        <mxCell id="BUQTSwTULVwV5p79po12-17" value="" style="edgeStyle=orthogonalEdgeStyle;rounded=0;orthogonalLoop=1;jettySize=auto;html=1;" edge="1" parent="1" source="BUQTSwTULVwV5p79po12-12" target="BUQTSwTULVwV5p79po12-16">
          <mxGeometry relative="1" as="geometry" />
        </mxCell>
        <mxCell id="BUQTSwTULVwV5p79po12-21" value="" style="edgeStyle=orthogonalEdgeStyle;rounded=0;orthogonalLoop=1;jettySize=auto;html=1;" edge="1" parent="1" source="BUQTSwTULVwV5p79po12-12" target="BUQTSwTULVwV5p79po12-20">
          <mxGeometry relative="1" as="geometry" />
        </mxCell>
        <mxCell id="BUQTSwTULVwV5p79po12-12" value="decimal &amp;gt;=1" style="rhombus;whiteSpace=wrap;html=1;" vertex="1" parent="1">
          <mxGeometry x="307" y="360" width="94" height="80" as="geometry" />
        </mxCell>
        <mxCell id="BUQTSwTULVwV5p79po12-14" value="si" style="text;html=1;align=center;verticalAlign=middle;whiteSpace=wrap;rounded=0;" vertex="1" parent="1">
          <mxGeometry x="380" y="240" width="60" height="30" as="geometry" />
        </mxCell>
        <mxCell id="BUQTSwTULVwV5p79po12-15" value="no" style="text;html=1;align=center;verticalAlign=middle;whiteSpace=wrap;rounded=0;" vertex="1" parent="1">
          <mxGeometry x="350" y="310" width="60" height="30" as="geometry" />
        </mxCell>
        <mxCell id="BUQTSwTULVwV5p79po12-16" value="resto=decimal%2&lt;div&gt;&amp;nbsp;decimal=decimal/2&lt;br&gt;&lt;/div&gt;&lt;div&gt;binari += to_string(resto)&lt;br&gt;&lt;/div&gt;" style="whiteSpace=wrap;html=1;" vertex="1" parent="1">
          <mxGeometry x="440" y="370" width="170" height="60" as="geometry" />
        </mxCell>
        <mxCell id="BUQTSwTULVwV5p79po12-18" style="edgeStyle=orthogonalEdgeStyle;rounded=0;orthogonalLoop=1;jettySize=auto;html=1;entryX=0.66;entryY=0.125;entryDx=0;entryDy=0;entryPerimeter=0;" edge="1" parent="1" source="BUQTSwTULVwV5p79po12-16" target="BUQTSwTULVwV5p79po12-12">
          <mxGeometry relative="1" as="geometry">
            <Array as="points">
              <mxPoint x="525" y="360" />
              <mxPoint x="369" y="360" />
            </Array>
          </mxGeometry>
        </mxCell>
        <mxCell id="BUQTSwTULVwV5p79po12-19" value="si" style="text;html=1;align=center;verticalAlign=middle;whiteSpace=wrap;rounded=0;" vertex="1" parent="1">
          <mxGeometry x="384" y="370" width="60" height="30" as="geometry" />
        </mxCell>
        <mxCell id="BUQTSwTULVwV5p79po12-26" value="" style="edgeStyle=orthogonalEdgeStyle;rounded=0;orthogonalLoop=1;jettySize=auto;html=1;" edge="1" parent="1" source="BUQTSwTULVwV5p79po12-20" target="BUQTSwTULVwV5p79po12-25">
          <mxGeometry relative="1" as="geometry" />
        </mxCell>
        <mxCell id="BUQTSwTULVwV5p79po12-33" value="" style="edgeStyle=orthogonalEdgeStyle;rounded=0;orthogonalLoop=1;jettySize=auto;html=1;" edge="1" parent="1" source="BUQTSwTULVwV5p79po12-20" target="BUQTSwTULVwV5p79po12-32">
          <mxGeometry relative="1" as="geometry" />
        </mxCell>
        <mxCell id="BUQTSwTULVwV5p79po12-20" value="int i=0, i&amp;lt;binari.size()" style="rhombus;whiteSpace=wrap;html=1;" vertex="1" parent="1">
          <mxGeometry x="287" y="480" width="134" height="80" as="geometry" />
        </mxCell>
        <mxCell id="BUQTSwTULVwV5p79po12-22" value="no" style="text;html=1;align=center;verticalAlign=middle;whiteSpace=wrap;rounded=0;" vertex="1" parent="1">
          <mxGeometry x="334" y="430" width="60" height="30" as="geometry" />
        </mxCell>
        <mxCell id="BUQTSwTULVwV5p79po12-28" style="edgeStyle=orthogonalEdgeStyle;rounded=0;orthogonalLoop=1;jettySize=auto;html=1;entryX=0.5;entryY=1;entryDx=0;entryDy=0;" edge="1" parent="1" source="BUQTSwTULVwV5p79po12-25" target="BUQTSwTULVwV5p79po12-27">
          <mxGeometry relative="1" as="geometry" />
        </mxCell>
        <mxCell id="BUQTSwTULVwV5p79po12-25" value="mostrar&lt;div&gt;binari[binari.size()-1-i]&lt;br&gt;&lt;/div&gt;" style="shape=parallelogram;perimeter=parallelogramPerimeter;whiteSpace=wrap;html=1;fixedSize=1;" vertex="1" parent="1">
          <mxGeometry x="440" y="490" width="160" height="60" as="geometry" />
        </mxCell>
        <mxCell id="BUQTSwTULVwV5p79po12-27" value="i++" style="rounded=0;whiteSpace=wrap;html=1;" vertex="1" parent="1">
          <mxGeometry x="495" y="450" width="50" height="20" as="geometry" />
        </mxCell>
        <mxCell id="BUQTSwTULVwV5p79po12-30" style="edgeStyle=orthogonalEdgeStyle;rounded=0;orthogonalLoop=1;jettySize=auto;html=1;entryX=0.679;entryY=0.138;entryDx=0;entryDy=0;entryPerimeter=0;" edge="1" parent="1" source="BUQTSwTULVwV5p79po12-27" target="BUQTSwTULVwV5p79po12-20">
          <mxGeometry relative="1" as="geometry" />
        </mxCell>
        <mxCell id="BUQTSwTULVwV5p79po12-31" value="si" style="text;html=1;align=center;verticalAlign=middle;whiteSpace=wrap;rounded=0;" vertex="1" parent="1">
          <mxGeometry x="401" y="490" width="60" height="30" as="geometry" />
        </mxCell>
        <mxCell id="BUQTSwTULVwV5p79po12-35" style="edgeStyle=orthogonalEdgeStyle;rounded=0;orthogonalLoop=1;jettySize=auto;html=1;" edge="1" parent="1" source="BUQTSwTULVwV5p79po12-32" target="BUQTSwTULVwV5p79po12-34">
          <mxGeometry relative="1" as="geometry" />
        </mxCell>
        <mxCell id="BUQTSwTULVwV5p79po12-32" value="salto de linea" style="shape=parallelogram;perimeter=parallelogramPerimeter;whiteSpace=wrap;html=1;fixedSize=1;" vertex="1" parent="1">
          <mxGeometry x="294" y="585" width="120" height="60" as="geometry" />
        </mxCell>
        <mxCell id="BUQTSwTULVwV5p79po12-34" value="FIN" style="ellipse;whiteSpace=wrap;html=1;" vertex="1" parent="1">
          <mxGeometry x="485" y="597.5" width="80" height="35" as="geometry" />
        </mxCell>
        <mxCell id="BUQTSwTULVwV5p79po12-36" value="no" style="text;html=1;align=center;verticalAlign=middle;whiteSpace=wrap;rounded=0;" vertex="1" parent="1">
          <mxGeometry x="341" y="555" width="60" height="30" as="geometry" />
        </mxCell>
      </root>
    </mxGraphModel>
  </diagram>
</mxfile>
